# xmcd
#
# Track frame offsets:
#	150
#	20504
#	36331
#	52551
#	78167
#	96466
#	115913
#	132033
#	151256
#	168716
#	183427
#	201657
#	220781
#	235709
#	249978
#	266721
#
# Disc length: 3735 seconds
#
# Revision: 1
# Processed by: cddbd v1.5.2PL0 Copyright (c) Steve Scherf et al.
# Submitted via: audiograbber 1.83.01
#
DISCID=d60e9510
DTITLE=Various Artist - ESP-490-06
DYEAR=2007
DGENRE=Country
TTITLE0=Kenny Chesney - Flip-Flop Summer
TTITLE1=Emerson Drive - You Still Own Me
TTITLE2=Jennifer Hanson - Joyride
TTITLE3=Keith Urban - Everybody
TTITLE4=Big and Rich - Between Raising Hell and Amazing Grace
TTITLE5=Tim McGraw - If You're Reading This
TTITLE6=Taylor Swift - Our Song
TTITLE7=Little Big Town - A Little More You
TTITLE8=Gary Allan - Watching Airplanes
TTITLE9=Joe Nichols - Another Side of You
TTITLE10=The Wreckers - The Good Kind
TTITLE11=Billy Covington - Tangled Up
TTITLE12=Bucky Covington - It's Good To Be Us
TTITLE13=Danielle Peck - Bad For Me
TTITLE14=Kenny Chesney - Never Wanter Nothing More
TTITLE15=Mark Chesnutt - Rollin' With The Flow
EXTD=
EXTT0=
EXTT1=
EXTT2=
EXTT3=
EXTT4=
EXTT5=
EXTT6=
EXTT7=
EXTT8=
EXTT9=
EXTT10=
EXTT11=
EXTT12=
EXTT13=
EXTT14=
EXTT15=
PLAYORDER=
